HIERARCHY
ROOT Hips
{
	OFFSET 0.000000 0.000000 0.000000
	CHANNELS 6 Xposition Yposition Zposition Zrotation Xrotation Yrotation
	JOINT Spine
	{
		OFFSET 0.000000 0.059888 0.006665
		CHANNELS 6 Xposition Yposition Zposition Zrotation Xrotation Yrotation
		JOINT Chest
		{
			OFFSET 0.000000 0.125681 -0.015911
			CHANNELS 6 Xposition Yposition Zposition Zrotation Xrotation Yrotation
			JOINT UpperChest
			{
				OFFSET 0.000000 0.122768 -0.001652
				CHANNELS 6 Xposition Yposition Zposition Zrotation Xrotation Yrotation
				JOINT Neck
				{
					OFFSET 0.000000 0.155865 0.008735
					CHANNELS 6 Xposition Yposition Zposition Zrotation Xrotation Yrotation
					JOINT Head
					{
						OFFSET 0.000000 0.095969 -0.000410
						CHANNELS 6 Xposition Yposition Zposition Zrotation Xrotation Yrotation
						JOINT LeftEye
						{
							OFFSET 0.015267 0.059218 0.021494
							CHANNELS 6 Xposition Yposition Zposition Zrotation Xrotation Yrotation
							End Site
							{
								OFFSET 0.015267 0.059218 0.021494
							}
						}
						JOINT RightEye
						{
							OFFSET -0.015267 0.059218 0.021494
							CHANNELS 6 Xposition Yposition Zposition Zrotation Xrotation Yrotation
							End Site
							{
								OFFSET -0.015267 0.059218 0.021494
							}
						}
					}
				}
				JOINT LeftShoulder
				{
					OFFSET 0.025383 0.124268 0.007699
					CHANNELS 6 Xposition Yposition Zposition Zrotation Xrotation Yrotation
					JOINT LeftUpperArm
					{
						OFFSET 0.136062 0.000000 0.000000
						CHANNELS 6 Xposition Yposition Zposition Zrotation Xrotation Yrotation
						JOINT LeftLowerArm
						{
							OFFSET 0.225446 0.000000 0.000000
							CHANNELS 6 Xposition Yposition Zposition Zrotation Xrotation Yrotation
							JOINT LeftHand
							{
								OFFSET 0.256325 0.000003 0.000015
								CHANNELS 6 Xposition Yposition Zposition Zrotation Xrotation Yrotation
								JOINT LeftIndexProximal
								{
									OFFSET 0.074229 0.008101 0.022282
									CHANNELS 6 Xposition Yposition Zposition Zrotation Xrotation Yrotation
									JOINT LeftIndexIntermediate
									{
										OFFSET 0.037712 0.000000 -0.000001
										CHANNELS 6 Xposition Yposition Zposition Zrotation Xrotation Yrotation
										JOINT LeftIndexDistal
										{
											OFFSET 0.023218 0.000022 0.000021
											CHANNELS 6 Xposition Yposition Zposition Zrotation Xrotation Yrotation
											End Site
											{
												OFFSET 0.023218 0.000022 0.000021
											}
										}
									}
								}
								JOINT LeftLittleProximal
								{
									OFFSET 0.069261 0.008101 -0.033073
									CHANNELS 6 Xposition Yposition Zposition Zrotation Xrotation Yrotation
									JOINT LeftLittleIntermediate
									{
										OFFSET 0.035643 0.000000 0.000000
										CHANNELS 6 Xposition Yposition Zposition Zrotation Xrotation Yrotation
										JOINT LeftLittleDistal
										{
											OFFSET 0.020542 0.000000 0.000000
											CHANNELS 6 Xposition Yposition Zposition Zrotation Xrotation Yrotation
											End Site
											{
												OFFSET 0.020542 0.000000 0.000000
											}
										}
									}
								}
								JOINT LeftMiddleProximal
								{
									OFFSET 0.075240 0.008101 0.002320
									CHANNELS 6 Xposition Yposition Zposition Zrotation Xrotation Yrotation
									JOINT LeftMiddleIntermediate
									{
										OFFSET 0.042007 0.000000 0.000000
										CHANNELS 6 Xposition Yposition Zposition Zrotation Xrotation Yrotation
										JOINT LeftMiddleDistal
										{
											OFFSET 0.025915 0.000000 0.000000
											CHANNELS 6 Xposition Yposition Zposition Zrotation Xrotation Yrotation
											End Site
											{
												OFFSET 0.025915 0.000000 0.000000
											}
										}
									}
								}
								JOINT LeftRingProximal
								{
									OFFSET 0.074383 0.008101 -0.015403
									CHANNELS 6 Xposition Yposition Zposition Zrotation Xrotation Yrotation
									JOINT LeftRingIntermediate
									{
										OFFSET 0.038967 0.000000 0.000000
										CHANNELS 6 Xposition Yposition Zposition Zrotation Xrotation Yrotation
										JOINT LeftRingDistal
										{
											OFFSET 0.022488 0.000000 0.000000
											CHANNELS 6 Xposition Yposition Zposition Zrotation Xrotation Yrotation
											End Site
											{
												OFFSET 0.022488 0.000000 0.000000
											}
										}
									}
								}
								JOINT LeftThumbProximal
								{
									OFFSET 0.003995 -0.010985 0.018096
									CHANNELS 6 Xposition Yposition Zposition Zrotation Xrotation Yrotation
									JOINT LeftThumbIntermediate
									{
										OFFSET 0.052819 -0.000008 -0.000074
										CHANNELS 6 Xposition Yposition Zposition Zrotation Xrotation Yrotation
										JOINT LeftThumbDistal
										{
											OFFSET 0.032489 0.000042 -0.000035
											CHANNELS 6 Xposition Yposition Zposition Zrotation Xrotation Yrotation
											End Site
											{
												OFFSET 0.032489 0.000042 -0.000035
											}
										}
									}
								}
							}
						}
					}
				}
				JOINT RightShoulder
				{
					OFFSET -0.025383 0.124268 0.007699
					CHANNELS 6 Xposition Yposition Zposition Zrotation Xrotation Yrotation
					JOINT RightUpperArm
					{
						OFFSET -0.136062 0.000000 0.000000
						CHANNELS 6 Xposition Yposition Zposition Zrotation Xrotation Yrotation
						JOINT RightLowerArm
						{
							OFFSET -0.225446 0.000000 0.000000
							CHANNELS 6 Xposition Yposition Zposition Zrotation Xrotation Yrotation
							JOINT RightHand
							{
								OFFSET -0.256325 0.000003 0.000015
								CHANNELS 6 Xposition Yposition Zposition Zrotation Xrotation Yrotation
								JOINT RightIndexProximal
								{
									OFFSET -0.074229 0.008101 0.022282
									CHANNELS 6 Xposition Yposition Zposition Zrotation Xrotation Yrotation
									JOINT RightIndexIntermediate
									{
										OFFSET -0.037712 0.000000 -0.000001
										CHANNELS 6 Xposition Yposition Zposition Zrotation Xrotation Yrotation
										JOINT RightIndexDistal
										{
											OFFSET -0.023218 0.000022 0.000021
											CHANNELS 6 Xposition Yposition Zposition Zrotation Xrotation Yrotation
											End Site
											{
												OFFSET -0.023218 0.000022 0.000021
											}
										}
									}
								}
								JOINT RightLittleProximal
								{
									OFFSET -0.069261 0.008101 -0.033073
									CHANNELS 6 Xposition Yposition Zposition Zrotation Xrotation Yrotation
									JOINT RightLittleIntermediate
									{
										OFFSET -0.035643 0.000000 0.000000
										CHANNELS 6 Xposition Yposition Zposition Zrotation Xrotation Yrotation
										JOINT RightLittleDistal
										{
											OFFSET -0.020542 0.000000 0.000000
											CHANNELS 6 Xposition Yposition Zposition Zrotation Xrotation Yrotation
											End Site
											{
												OFFSET -0.020542 0.000000 0.000000
											}
										}
									}
								}
								JOINT RightMiddleProximal
								{
									OFFSET -0.075240 0.008101 0.002320
									CHANNELS 6 Xposition Yposition Zposition Zrotation Xrotation Yrotation
									JOINT RightMiddleIntermediate
									{
										OFFSET -0.042007 0.000000 0.000000
										CHANNELS 6 Xposition Yposition Zposition Zrotation Xrotation Yrotation
										JOINT RightMiddleDistal
										{
											OFFSET -0.025915 0.000000 0.000000
											CHANNELS 6 Xposition Yposition Zposition Zrotation Xrotation Yrotation
											End Site
											{
												OFFSET -0.025915 0.000000 0.000000
											}
										}
									}
								}
								JOINT RightRingProximal
								{
									OFFSET -0.074383 0.008101 -0.015403
									CHANNELS 6 Xposition Yposition Zposition Zrotation Xrotation Yrotation
									JOINT RightRingIntermediate
									{
										OFFSET -0.038967 0.000000 0.000000
										CHANNELS 6 Xposition Yposition Zposition Zrotation Xrotation Yrotation
										JOINT RightRingDistal
										{
											OFFSET -0.022488 0.000000 0.000000
											CHANNELS 6 Xposition Yposition Zposition Zrotation Xrotation Yrotation
											End Site
											{
												OFFSET -0.022488 0.000000 0.000000
											}
										}
									}
								}
								JOINT RightThumbProximal
								{
									OFFSET -0.003995 -0.010985 0.018096
									CHANNELS 6 Xposition Yposition Zposition Zrotation Xrotation Yrotation
									JOINT RightThumbIntermediate
									{
										OFFSET -0.052819 -0.000008 -0.000074
										CHANNELS 6 Xposition Yposition Zposition Zrotation Xrotation Yrotation
										JOINT RightThumbDistal
										{
											OFFSET -0.032489 0.000042 -0.000035
											CHANNELS 6 Xposition Yposition Zposition Zrotation Xrotation Yrotation
											End Site
											{
												OFFSET -0.032489 0.000042 -0.000035
											}
										}
									}
								}
							}
						}
					}
				}
			}
		}
	}
	JOINT LeftUpperLeg
	{
		OFFSET 0.087143 -0.045243 0.001548
		CHANNELS 6 Xposition Yposition Zposition Zrotation Xrotation Yrotation
		JOINT LeftLowerLeg
		{
			OFFSET 0.000000 -0.394432 -0.000001
			CHANNELS 6 Xposition Yposition Zposition Zrotation Xrotation Yrotation
			JOINT LeftFoot
			{
				OFFSET 0.000000 -0.466446 0.003058
				CHANNELS 6 Xposition Yposition Zposition Zrotation Xrotation Yrotation
				JOINT LeftToes
				{
					OFFSET 0.000000 -0.079218 0.140851
					CHANNELS 6 Xposition Yposition Zposition Zrotation Xrotation Yrotation
					End Site
					{
						OFFSET 0.000000 -0.079218 0.140851
					}
				}
			}
		}
	}
	JOINT RightUpperLeg
	{
		OFFSET -0.087143 -0.045243 0.001548
		CHANNELS 6 Xposition Yposition Zposition Zrotation Xrotation Yrotation
		JOINT RightLowerLeg
		{
			OFFSET 0.000000 -0.394432 -0.000001
			CHANNELS 6 Xposition Yposition Zposition Zrotation Xrotation Yrotation
			JOINT RightFoot
			{
				OFFSET 0.000000 -0.466446 0.003058
				CHANNELS 6 Xposition Yposition Zposition Zrotation Xrotation Yrotation
				JOINT RightToes
				{
					OFFSET 0.000000 -0.079218 0.140851
					CHANNELS 6 Xposition Yposition Zposition Zrotation Xrotation Yrotation
					End Site
					{
						OFFSET 0.000000 -0.079218 0.140851
					}
				}
			}
		}
	}
}
MOTION
Frames: 4
Frame Time: 0.041667
0.034793 1.029836 0.086938 2.069386 11.882019 13.746890 -0.000000 0.059888 0.006665 -1.798411 7.112317 2.637039 -0.000000 0.125681 -0.015911 -1.331462 0.195523 -0.516852 -0.000000 0.122768 -0.001652 -0.000041 -12.397629 -0.000082 -0.000000 0.155865 0.008735 0.558412 15.671053 0.269560 0.000000 0.095969 -0.000410 0.313326 1.462267 1.426359 0.015267 0.059218 0.021494 -1.701130 3.586995 21.747930 -0.015267 0.059218 0.021494 1.701133 3.587002 -21.747923 0.025383 0.124268 0.007699 16.253764 -2.419841 13.676356 0.136062 0.000000 -0.000000 -96.542265 13.148388 11.712613 0.225446 -0.000000 -0.000000 -10.271346 13.144695 -27.921052 0.256325 0.000003 0.000015 -14.029028 41.230778 11.932618 0.074229 0.008101 0.022282 -0.012967 0.667618 1.112106 0.037712 0.000000 -0.000001 -1.679194 1.282861 0.674522 0.023218 0.000022 0.000021 -0.334985 1.286459 -0.710999 0.069261 0.008101 -0.033073 0.000006 -0.000048 0.000002 0.035643 -0.000000 -0.000000 0.000003 -0.000001 0.000000 0.020542 -0.000000 0.000000 0.890204 -0.008561 -1.101172 0.075240 0.008101 0.002320 -0.000000 -0.000009 -0.000006 0.042007 0.000000 -0.000000 0.000003 0.000039 -0.000013 0.025915 -0.000000 0.000000 0.000003 0.000042 -0.000012 0.074383 0.008101 -0.015403 0.000000 0.000009 0.000005 0.038967 0.000000 0.000000 0.000002 0.000003 -0.000000 0.022488 0.000000 -0.000000 -0.712572 -0.008157 1.310728 0.003995 -0.010985 0.018096 86.199487 49.487521 -89.646574 0.052819 -0.000008 -0.000074 -2.573039 -0.739913 0.463019 0.032489 0.000042 -0.000035 4.590280 -0.705070 -0.717112 -0.025383 0.124268 0.007699 10.434296 -2.384301 -14.424709 -0.136062 -0.000000 -0.000000 64.173910 29.934909 7.683293 -0.225446 0.000000 0.000000 10.313201 23.375303 22.956773 -0.256325 0.000003 0.000015 -3.725899 36.443407 2.093072 -0.074229 0.008101 0.022282 0.012967 0.667620 -1.112106 -0.037712 0.000000 -0.000001 1.679195 1.282861 -0.674520 -0.023218 0.000022 0.000021 0.334982 1.286453 0.711000 -0.069261 0.008101 -0.033073 -0.000006 -0.000043 -0.000002 -0.035643 -0.000000 0.000000 -0.000004 0.000000 -0.000000 -0.020542 -0.000000 -0.000000 -0.890203 -0.008562 1.101171 -0.075240 0.008101 0.002320 -0.000000 -0.000008 0.000006 -0.042007 -0.000000 -0.000000 -0.000004 0.000039 0.000012 -0.025915 -0.000000 0.000000 -0.000004 0.000039 0.000013 -0.074383 0.008101 -0.015403 -0.000001 0.000015 -0.000004 -0.038967 -0.000000 -0.000000 -0.000002 0.000000 -0.000000 -0.022488 0.000000 -0.000000 0.712571 -0.008158 -1.310728 -0.003995 -0.010985 0.018096 -86.199433 49.487521 89.646581 -0.052819 -0.000008 -0.000074 2.573044 -0.739911 -0.463021 -0.032489 0.000042 -0.000035 -4.590277 -0.705066 0.717110 0.087143 -0.045243 0.001548 -368.999904 -6.712934 -361.060684 0.000000 -0.394432 -0.000001 2.389643 22.345133 -4.644871 -0.000000 -0.466446 0.003058 8.320865 -18.381091 25.325759 0.000000 -0.079218 0.140851 0.000000 0.248283 -0.000001 -0.087143 -0.045243 0.001548 -10.176257 -8.300558 -1.484381 0.000000 -0.394432 -0.000001 5.163600 23.225698 -10.974874 0.000000 -0.466446 0.003058 6.326316 -20.242449 18.069633 -0.000000 -0.079218 0.140851 -0.000000 0.248280 -0.000001 
0.033272 1.031976 0.084044 1.802708 12.417547 13.802399 0.000000 0.059888 0.006665 -1.695940 7.202315 2.381723 -0.000000 0.125681 -0.015911 -1.284082 0.292052 -0.481585 0.000000 0.122768 -0.001652 -0.000042 -12.397626 -0.000085 0.000000 0.155865 0.008735 0.583102 15.238162 0.243458 0.000000 0.095969 -0.000410 0.322032 1.277247 1.795576 0.015267 0.059218 0.021494 -1.701130 3.587000 21.747934 -0.015267 0.059218 0.021494 1.701133 3.587010 -21.747923 0.025383 0.124268 0.007699 15.962087 -2.369889 13.013789 0.136062 0.000000 -0.000000 -96.827569 14.812035 10.257756 0.225446 0.000000 -0.000000 -10.263188 10.671497 -27.942282 0.256325 0.000003 0.000015 -15.230922 43.806152 12.913830 0.074229 0.008101 0.022282 -0.012967 0.667619 1.112106 0.037712 -0.000000 -0.000001 -1.679195 1.282857 0.674521 0.023218 0.000022 0.000021 -0.334984 1.286452 -0.710999 0.069261 0.008101 -0.033073 0.000005 -0.000044 0.000001 0.035643 -0.000000 -0.000000 0.000003 0.000005 -0.000001 0.020542 -0.000000 -0.000000 0.890204 -0.008563 -1.101173 0.075240 0.008101 0.002320 -0.000001 -0.000010 -0.000006 0.042007 0.000000 0.000000 0.000003 0.000043 -0.000015 0.025915 0.000000 -0.000000 0.000003 0.000034 -0.000015 0.074383 0.008101 -0.015403 -0.000001 0.000015 0.000003 0.038967 0.000000 -0.000000 0.000003 0.000000 -0.000001 0.022488 -0.000000 0.000000 -0.712571 -0.008157 1.310730 0.003995 -0.010985 0.018096 86.199487 49.487517 -89.646574 0.052819 -0.000008 -0.000074 -2.573044 -0.739912 0.463021 0.032489 0.000042 -0.000035 4.590282 -0.705065 -0.717112 -0.025383 0.124268 0.007699 10.563904 -2.333114 -13.853413 -0.136062 0.000000 -0.000000 63.505221 30.770651 8.926620 -0.225446 -0.000000 -0.000000 10.277553 23.039968 22.313680 -0.256325 0.000003 0.000015 -4.769420 34.941755 2.507074 -0.074229 0.008101 0.022282 0.012968 0.667619 -1.112107 -0.037712 -0.000000 -0.000001 1.679194 1.282861 -0.674520 -0.023218 0.000022 0.000021 0.334982 1.286453 0.710998 -0.069261 0.008101 -0.033073 -0.000006 -0.000043 -0.000005 -0.035643 0.000000 0.000000 -0.000004 0.000000 -0.000001 -0.020542 -0.000000 0.000000 -0.890204 -0.008562 1.101173 -0.075240 0.008101 0.002320 0.000001 -0.000008 0.000003 -0.042007 -0.000000 -0.000000 -0.000003 0.000039 0.000011 -0.025915 -0.000000 0.000000 -0.000003 0.000039 0.000012 -0.074383 0.008101 -0.015403 0.000001 0.000014 -0.000006 -0.038967 -0.000000 0.000000 -0.000003 0.000000 -0.000001 -0.022488 -0.000000 0.000000 0.712572 -0.008158 -1.310732 -0.003995 -0.010985 0.018096 -86.199433 49.487517 89.646581 -0.052819 -0.000008 -0.000074 2.573038 -0.739910 -0.463021 -0.032489 0.000042 -0.000035 -4.590279 -0.705067 0.717111 0.087143 -0.045243 0.001548 -368.551844 -7.646766 -361.146334 0.000000 -0.394432 -0.000001 2.005571 22.607368 -3.944696 0.000000 -0.466446 0.003058 8.375619 -18.684095 25.116492 0.000000 -0.079218 0.140851 -0.000001 0.248283 0.000003 -0.087143 -0.045243 0.001548 -9.629462 -9.010328 -1.522058 0.000000 -0.394432 -0.000001 4.812812 23.271815 -10.214755 -0.000000 -0.466446 0.003058 6.001846 -20.307177 17.141656 -0.000000 -0.079218 0.140851 -0.000001 0.248285 -0.000002 
0.031476 1.033317 0.082357 1.477956 12.960671 13.850412 0.000000 0.059888 0.006665 -1.688219 7.309432 2.258024 0.000000 0.125681 -0.015911 -1.294542 0.399755 -0.456347 0.000000 0.122768 -0.001652 -0.000041 -12.397625 -0.000081 -0.000000 0.155865 0.008735 0.707376 14.801503 0.213011 -0.000000 0.095969 -0.000410 0.500715 1.162775 1.786297 0.015267 0.059218 0.021494 -1.701132 3.586994 21.747932 -0.015267 0.059218 0.021494 1.701134 3.587008 -21.747922 0.025383 0.124268 0.007699 15.694040 -2.321239 12.368739 0.136062 -0.000000 -0.000000 -96.817337 16.603526 8.715981 0.225446 -0.000000 0.000000 -10.210841 8.527334 -27.874834 0.256325 0.000003 0.000015 -15.723929 45.865963 13.152071 0.074229 0.008101 0.022282 -0.012967 0.667625 1.112105 0.037712 0.000000 -0.000001 -1.679195 1.282859 0.674521 0.023218 0.000022 0.000021 -0.334984 1.286456 -0.710999 0.069261 0.008101 -0.033073 0.000004 -0.000038 0.000001 0.035643 0.000000 -0.000000 0.000003 -0.000001 0.000000 0.020542 0.000000 -0.000000 0.890204 -0.008563 -1.101174 0.075240 0.008101 0.002320 -0.000000 -0.000007 -0.000006 0.042007 -0.000000 -0.000000 0.000002 0.000037 -0.000014 0.025915 -0.000000 0.000000 0.000003 0.000042 -0.000015 0.074383 0.008101 -0.015403 -0.000001 0.000018 0.000003 0.038967 -0.000000 -0.000000 0.000003 0.000001 -0.000000 0.022488 0.000000 -0.000000 -0.712572 -0.008154 1.310728 0.003995 -0.010985 0.018096 86.199494 49.487524 -89.646581 0.052819 -0.000008 -0.000074 -2.573039 -0.739915 0.463024 0.032489 0.000042 -0.000035 4.590282 -0.705069 -0.717106 -0.025383 0.124268 0.007699 10.738283 -2.283059 -13.341441 -0.136062 0.000000 -0.000000 62.798412 31.400767 10.000644 -0.225446 -0.000000 -0.000000 10.228645 23.060911 21.881054 -0.256325 0.000003 0.000015 -5.705920 32.954263 3.030346 -0.074229 0.008101 0.022282 0.012971 0.667620 -1.112105 -0.037712 -0.000000 -0.000001 1.679196 1.282861 -0.674526 -0.023218 0.000022 0.000021 0.334983 1.286454 0.711001 -0.069261 0.008101 -0.033073 -0.000002 -0.000042 -0.000001 -0.035643 0.000000 -0.000000 -0.000003 -0.000001 0.000001 -0.020542 -0.000000 -0.000000 -0.890204 -0.008562 1.101172 -0.075240 0.008101 0.002320 0.000004 -0.000007 0.000006 -0.042007 -0.000000 -0.000000 -0.000004 0.000039 0.000013 -0.025915 0.000000 -0.000000 -0.000002 0.000039 0.000015 -0.074383 0.008101 -0.015403 0.000004 0.000015 -0.000003 -0.038967 0.000000 0.000000 -0.000002 0.000000 -0.000002 -0.022488 0.000000 -0.000000 0.712573 -0.008158 -1.310727 -0.003995 -0.010985 0.018096 -86.199433 49.487514 89.646588 -0.052819 -0.000008 -0.000074 2.573037 -0.739909 -0.463022 -0.032489 0.000042 -0.000035 -4.590281 -0.705065 0.717110 0.087143 -0.045243 0.001548 -368.167741 -8.330064 -361.191222 -0.000000 -0.394432 -0.000001 2.083159 22.645269 -4.117488 -0.000000 -0.466446 0.003058 8.305307 -18.515970 25.124426 0.000000 -0.079218 0.140851 0.000001 0.248283 0.000003 -0.087143 -0.045243 0.001548 -9.152857 -9.717397 -1.557753 -0.000000 -0.394432 -0.000001 4.751444 23.743310 -10.155901 -0.000000 -0.466446 0.003058 5.790670 -20.082959 16.738893 0.000000 -0.079218 0.140851 0.000001 0.248283 0.000002 
0.029592 1.034120 0.081457 1.128119 13.388438 13.986266 0.000000 0.059888 0.006665 -1.742714 7.480199 2.228277 0.000000 0.125681 -0.015911 -1.344756 0.569187 -0.435495 0.000000 0.122768 -0.001652 -0.000041 -12.397635 -0.000078 0.000000 0.155865 0.008735 0.868825 14.362413 0.179790 0.000000 0.095969 -0.000410 0.805248 0.970037 1.457021 0.015267 0.059218 0.021494 -1.701130 3.586996 21.747935 -0.015267 0.059218 0.021494 1.701131 3.587007 -21.747923 0.025383 0.124268 0.007699 15.571856 -2.302965 11.752677 0.136062 -0.000000 -0.000000 -96.726359 18.016731 7.408061 0.225446 -0.000000 -0.000000 -10.046886 6.962700 -27.821454 0.256325 0.000003 0.000015 -15.502653 47.067243 12.874383 0.074229 0.008101 0.022282 -0.012967 0.667621 1.112106 0.037712 0.000000 -0.000001 -1.679195 1.282861 0.674522 0.023218 0.000022 0.000021 -0.334984 1.286449 -0.711000 0.069261 0.008101 -0.033073 0.000005 -0.000040 0.000000 0.035643 -0.000000 0.000000 0.000003 0.000005 0.000001 0.020542 -0.000000 0.000000 0.890204 -0.008560 -1.101172 0.075240 0.008101 0.002320 -0.000001 -0.000008 -0.000006 0.042007 -0.000000 -0.000000 0.000003 0.000040 -0.000012 0.025915 -0.000000 -0.000000 0.000003 0.000042 -0.000012 0.074383 0.008101 -0.015403 -0.000001 0.000017 0.000004 0.038967 0.000000 -0.000000 0.000003 0.000000 0.000000 0.022488 0.000000 0.000000 -0.712572 -0.008154 1.310730 0.003995 -0.010985 0.018096 86.199494 49.487521 -89.646581 0.052819 -0.000008 -0.000074 -2.573035 -0.739914 0.463022 0.032489 0.000042 -0.000035 4.590282 -0.705072 -0.717104 -0.025383 0.124268 0.007699 11.001071 -2.263215 -12.879152 -0.136062 0.000000 -0.000000 62.091283 31.777349 10.822724 -0.225446 -0.000000 -0.000000 10.127723 23.203906 21.623423 -0.256325 0.000003 0.000015 -6.264545 30.941338 3.328277 -0.074229 0.008101 0.022282 0.012971 0.667619 -1.112106 -0.037712 -0.000000 -0.000001 1.679194 1.282861 -0.674524 -0.023218 0.000022 0.000021 0.334983 1.286453 0.710996 -0.069261 0.008101 -0.033073 -0.000005 -0.000043 -0.000003 -0.035643 -0.000000 -0.000000 -0.000004 0.000000 0.000001 -0.020542 -0.000000 -0.000000 -0.890204 -0.008562 1.101172 -0.075240 0.008101 0.002320 0.000003 -0.000008 0.000005 -0.042007 0.000000 -0.000000 -0.000004 0.000039 0.000015 -0.025915 -0.000000 0.000000 -0.000002 0.000039 0.000013 -0.074383 0.008101 -0.015403 0.000001 0.000014 -0.000003 -0.038967 0.000000 0.000000 -0.000002 0.000000 -0.000003 -0.022488 0.000000 0.000000 0.712572 -0.008158 -1.310730 -0.003995 -0.010985 0.018096 -86.199439 49.487517 89.646581 -0.052819 -0.000008 -0.000074 2.573039 -0.739910 -0.463020 -0.032489 0.000042 -0.000035 -4.590277 -0.705065 0.717110 0.087143 -0.045243 0.001548 -367.829183 -8.841618 -361.210757 -0.000000 -0.394432 -0.000001 2.403233 22.664017 -4.801150 0.000000 -0.466446 0.003058 8.098146 -18.003399 25.171014 0.000000 -0.079218 0.140851 -0.000001 0.248288 -0.000001 -0.087143 -0.045243 0.001548 -8.711067 -10.338946 -1.575111 -0.000000 -0.394432 -0.000001 4.817232 24.388355 -10.321124 0.000000 -0.466446 0.003058 5.661178 -19.883622 16.534529 -0.000000 -0.079218 0.140851 0.000001 0.248283 0.000000 
